<svg xmlns="http://www.w3.org/2000/svg" viewBox="0 0 64 64"><defs><style>.cls-1{fill:#726eff;}.cls-2{fill:#fff;}.cls-3{opacity:0;}</style></defs><title>panel-indigo-2-active</title><g id="Layer_2" data-name="Layer 2"><g id="Buttons_Containers" data-name="Buttons Containers"><rect class="cls-1" x="3" y="3" width="58" height="58" rx="7"/><path class="cls-2" d="M54,5a5,5,0,0,1,5,5V54a5,5,0,0,1-5,5H10a5,5,0,0,1-5-5V10a5,5,0,0,1,5-5H54m0-4H10a9,9,0,0,0-9,9V54a9,9,0,0,0,9,9H54a9,9,0,0,0,9-9V10a9,9,0,0,0-9-9Z"/><g class="cls-3"><rect class="cls-2" width="64" height="64"/></g></g></g></svg>