<svg xmlns="http://www.w3.org/2000/svg" viewBox="0 0 64 64"><defs><style>.cls-1{fill:#4e2ce8;}.cls-2{fill:#3503a8;}.cls-3{fill:#726eff;}.cls-4{opacity:0;}.cls-5{fill:#fff;}</style></defs><title>button-indented-indigo-light</title><g id="Layer_2" data-name="Layer 2"><g id="Buttons_Containers" data-name="Buttons Containers"><rect class="cls-1" x="2" y="2" width="60" height="60" rx="7"/><path class="cls-2" d="M55,4a5,5,0,0,1,5,5V55a5,5,0,0,1-5,5H9a5,5,0,0,1-5-5V9A5,5,0,0,1,9,4H55m0-4H9A9,9,0,0,0,0,9V55a9,9,0,0,0,9,9H55a9,9,0,0,0,9-9V9a9,9,0,0,0-9-9Z"/><rect class="cls-3" x="4" y="4" width="56" height="46" rx="5"/><rect class="cls-1" x="12" y="12" width="40" height="30" rx="2"/><g class="cls-4"><rect class="cls-5" width="64" height="64"/></g></g></g></svg>