<svg xmlns="http://www.w3.org/2000/svg" viewBox="0 0 128 128"><defs><style>.cls-1{fill:#899ab3;}.cls-2{fill:#597091;}.cls-3{fill:#aebbcc;}</style></defs><title>container-light-2</title><g id="Layer_2" data-name="Layer 2"><g id="Buttons_Containers" data-name="Buttons Containers"><rect class="cls-1" x="2.5" y="2.5" width="123" height="123" rx="12.5"/><path class="cls-2" d="M113,5a10,10,0,0,1,10,10v98a10,10,0,0,1-10,10H15A10,10,0,0,1,5,113V15A10,10,0,0,1,15,5h98m0-5H15A15,15,0,0,0,0,15v98a15,15,0,0,0,15,15h98a15,15,0,0,0,15-15V15A15,15,0,0,0,113,0Z"/><rect class="cls-3" x="5" y="5" width="118" height="108" rx="10"/></g></g></svg>